<svg xmlns="http://www.w3.org/2000/svg" height="800" width="1200" viewBox="-299.9472 -519 2599.5424 3114"><path d="M0 0h1998.953v1674.363H0zm0 0" fill="#f30"/><path d="M1537.39 962.887v122.058c0 32.168-26.085 58.246-58.261 58.246s-58.262-26.078-58.262-58.246V484.746h-113.043v701.043h342.61V962.54H1537.39zm-849.042 121.015c0 32.688-25.743 60.157-58.09 60.157-32.52-.38-58.63-26.95-58.434-59.461V962.539H458.781v101.195c0 50.77 44.52 132.489 171.13 132.489 126.609 0 171.132-62.594 171.132-132.489V484.746H688.348zm424.347-599.156h-226.09v701.043h226.09c84.52 0 113.043-55.984 113.043-91.805V884.301c0-29.906-29.914-68.856-74.437-68.856 44.523 0 74.437-61.894 74.437-96.668V599.152c0-77.543-69.566-114.406-113.043-114.406zm-44.523 644.016h-68.524V846.047h68.524c44.523 0 44.523 32.34 44.523 142.226 0 109.887 0 140.489-44.523 140.489zm-6.957-341.828l-61.567-.348V551.164h61.567c41.39 0 51.48 8.695 51.48 118.582 0 109.883-10.09 117.188-51.48 117.188zm-545.738 99.453c36.777.664 67.132-28.602 67.804-65.367.668-36.77-28.601-67.122-65.379-67.797-36.777-.672-67.14 28.586-67.816 65.355v1.043c-.387 36.488 28.89 66.383 65.39 66.766zm104.347-401.64H411.13L515.477 727.12zm0 0" fill="#fff"/><path d="M383.648 1793.29v111.624H256V1793.29h-51.48v251.066h51.828v-117.187H384v90.063a27.254 27.254 0 003.129 13.91 20.551 20.551 0 008.348 8 26.685 26.685 0 0010.433 3.824 51.015 51.015 0 009.738 1.043h19.829V1792.94h-51.829zm1009.395 251.065V1793.29h-50.437l-101.216 185.69-102.957-186.039H1087.3v251.067h26.437v-194.735l108.52 194.735h13.566l105.739-192.996v166.218a27.357 27.357 0 003.48 13.91 23.958 23.958 0 008.348 8.348 26.663 26.663 0 0010.433 3.824 54.68 54.68 0 0010.086 1.043zm323.824 0l-129.043-256.628h-15.304l-132.172 256.628h30.258l41.042-79.632h93.567l-12.867-25.73h-67.48l43.48-84.5 85.215 169.694a37.8 37.8 0 0012.523 15.301 35.457 35.457 0 0019.129 4.867zm268.871-251.065a25.1 25.1 0 00-4.87.347 16.615 16.615 0 00-5.22 2.086 12.05 12.05 0 00-4.171 4.172 13.88 13.88 0 00-1.739 6.957v161.695l-171.828-175.258h-33.043v251.067h30.262v-189.168l174.61 182.91c6.956 6.953 17.042 6.258 26.433 6.258h3.476v-251.067zM631.3 1787.727h-14.952l-132.524 256.628h30.262l97.738-189.863 42.434 84.5h-67.824l-13.22 25.383h94.263l29.914 59.813a37.79 37.79 0 0012.52 15.3 35.654 35.654 0 0019.132 4.52h31.652zm331.829 236.461l-76.176-94.586H860.52v114.753h-51.477V1793.29H904s38.953-.695 64.695 12.52c25.739 13.21 36.52 31.297 36.52 54.593 0 23.297-13.567 50.422-62.61 64.332l98.786 119.622h-40a66.535 66.535 0 01-18.09-3.13c-9.39-3.824-20.172-17.038-20.172-17.038zm-102.61-208.993v94.934h24s23.653.348 39.305-8.695c15.653-9.04 26.434-21.559 26.434-39.989-.113-18.422-11.399-34.93-28.52-41.73a61.566 61.566 0 00-26.437-4.867H860.52zM0 1927.168h7.648v48.336c7.653-7.652 14.61-11.824 26.09-11.824 18.782 0 32 14.605 32 35.816 0 24.691-16 40.34-40.347 40.34A64.505 64.505 0 010 2034.269zm8 101.887a48.423 48.423 0 0017.738 3.476c17.278.586 31.762-12.941 32.348-30.219v-2.12c0-17.387-10.438-29.555-25.043-29.555-9.043 0-16.348 4.172-25.043 14.254zM89.39 2076h-7.652l25.043-51.813-30.261-59.117h8l26.085 51.465 25.043-51.465h8zm0 0" fill="#f30"/></svg>